<svg width="37" height="33" viewBox="0 0 37 33" fill="none" xmlns="http://www.w3.org/2000/svg">
<path d="M0 9.88024C0 4.42353 4.42927 0 9.89305 0H27.107C32.5707 0 37 4.42353 37 9.88024V23.1198C37 28.5765 32.5707 33 27.107 33H9.89305C4.42927 33 0 28.5765 0 23.1198V9.88024Z" fill="#FBD007"/>
<path d="M13.4546 14.1287C13.4546 15.3838 12.4359 16.4012 11.1792 16.4012C9.92254 16.4012 8.90381 15.3838 8.90381 14.1287C8.90381 12.8737 9.92254 11.8563 11.1792 11.8563C12.4359 11.8563 13.4546 12.8737 13.4546 14.1287Z" fill="#090909"/>
<path d="M28.0962 14.1287C28.0962 15.3838 27.0775 16.4012 25.8208 16.4012C24.5641 16.4012 23.5454 15.3838 23.5454 14.1287C23.5454 12.8737 24.5641 11.8563 25.8208 11.8563C27.0775 11.8563 28.0962 12.8737 28.0962 14.1287Z" fill="#090909"/>
<path fill-rule="evenodd" clip-rule="evenodd" d="M15.6307 19.2665V19.9581C15.6307 20.6129 16.1623 21.1437 16.8179 21.1437H20.1815C20.8372 21.1437 21.3687 20.6129 21.3687 19.9581V19.2665H22.9516V19.9581C22.9516 21.486 21.7114 22.7246 20.1815 22.7246H16.8179C15.288 22.7246 14.0479 21.486 14.0479 19.9581V19.2665H15.6307Z" fill="black"/>
</svg>
